<svg width="64" height="64" viewBox="0 0 64 64" fill="none" xmlns="http://www.w3.org/2000/svg">
<path d="M60.4037 26.2672C59.932 23.7578 58.2753 22.1369 55.9468 22.1369C54.5762 22.1278 53.2651 21.5699 52.3009 20.5855C51.3367 19.6011 50.7981 18.2705 50.8031 16.8853C50.8031 16.3781 50.9842 15.6039 51.2484 14.9251C52.2221 12.7055 51.5088 10.0701 49.3841 8.55226L42.2705 4.52873C40.3496 3.70496 37.7155 4.26177 36.3154 5.74914C35.3304 6.78267 33.2774 8.2853 32.1491 8.2853C31.0056 8.2853 28.9413 6.75598 27.9526 5.69575C26.5298 4.1855 24.3335 3.41893 21.8276 4.52111L14.4687 8.6476C13.5259 9.33506 12.8412 10.3248 12.526 11.4556C12.2108 12.5865 12.2836 13.7918 12.7327 14.8755C12.9667 15.4476 13.2007 16.2904 13.2007 16.8853C13.2007 19.78 10.8949 22.1369 7.78521 22.1369C5.74357 22.1369 4.06422 23.8035 3.59626 26.3092C3.45663 27.0757 3 29.753 3 32.0375C3 34.1732 3.41135 36.7246 3.60004 37.8039C4.06799 40.3133 5.7247 41.938 8.05693 41.938C10.8911 41.938 13.1969 44.2949 13.1969 47.1896C13.1556 47.8677 13.0025 48.5341 12.744 49.1613C11.7817 51.3809 12.4987 54.0086 14.6083 55.515L21.571 59.4737C23.5334 60.3471 26.1902 59.7559 27.5978 58.1999C28.6243 57.071 30.7414 55.4959 31.8585 55.4959C32.9831 55.4959 35.1455 57.1244 36.1418 58.2533C37.123 59.3478 38.6099 60 40.1269 60C40.882 59.9944 41.6271 59.8254 42.312 59.5042L49.5351 55.4273C51.4748 54.0467 52.2145 51.3542 51.256 49.1613L51.2295 49.0964C50.9824 48.488 50.837 47.8423 50.7993 47.1857C50.7993 44.2911 53.1051 41.9342 56.2185 41.9342C58.2564 41.9342 59.9395 40.2714 60.415 37.7352C60.5924 36.7398 61 34.196 61 32.0336C61.0038 29.4555 60.4037 26.2672 60.4037 26.2672ZM31.8849 43.4826C25.6618 43.4826 20.5974 38.3302 20.5974 32.0031C20.5974 25.6723 25.6618 20.5199 31.8849 20.5199C38.1079 20.5199 43.1724 25.6723 43.1724 32.0031C43.1724 38.3302 38.1079 43.4826 31.8849 43.4826Z" fill="url(#paint0_linear_99_399)"/>
<defs>
<linearGradient id="paint0_linear_99_399" x1="3" y1="4" x2="58.9655" y2="61.9643" gradientUnits="userSpaceOnUse">
<stop offset="0.500516" stop-color="#F74D47"/>
<stop offset="1" stop-color="#FFA07D"/>
</linearGradient>
</defs>
</svg>
