<svg width="40" height="40" viewBox="0 0 40 40" fill="none" xmlns="http://www.w3.org/2000/svg">
<rect y="5" width="40" height="30" rx="8" fill="#CEE8FF"/>
<path d="M24 16L32 16" stroke="#0088FF" stroke-width="2.5" stroke-linecap="round"/>
<path d="M24 21H28" stroke="#0088FF" stroke-width="2.5" stroke-linecap="round"/>
<path d="M7.46099 20.2947C7.53387 20.1597 7.65314 20.0612 7.79287 20.0207C7.9326 19.9802 8.08149 20.0009 8.20718 20.0783L11.9944 22.4399C12.1201 22.5186 12.2118 22.6478 12.2494 22.7993C12.2871 22.9508 12.2676 23.1122 12.1952 23.2482L9.81302 27.7043C9.55407 28.188 8.87513 28.0501 8.79873 27.4958L8.48351 25.2117C8.46377 25.0669 8.39477 24.9353 8.28999 24.8426C8.24366 24.8004 8.19107 24.767 8.13443 24.7438C8.0078 24.6928 7.8682 24.694 7.74235 24.7472L5.74946 25.598C5.26817 25.8031 4.81661 25.2379 5.07556 24.7537L7.46099 20.2947ZM17.5718 20.2947C17.499 20.1594 17.3795 20.0608 17.2396 20.0202C17.0996 19.9797 16.9505 20.0006 16.8247 20.0783L13.0357 22.4399C12.9109 22.5195 12.8202 22.6491 12.7835 22.8005C12.7469 22.9519 12.7671 23.1129 12.8399 23.2482L15.1928 27.6504C15.4508 28.1331 16.128 27.9963 16.2066 27.4454L16.531 25.1726C16.551 25.0341 16.6159 24.9077 16.714 24.8159C16.7666 24.7675 16.8269 24.73 16.892 24.7052C17.0146 24.659 17.1485 24.6616 17.2694 24.7127L19.2532 25.5437C19.7345 25.7453 20.1828 25.1805 19.9243 24.6983L17.5718 20.2947Z" fill="#0088FF"/>
<path d="M12.5021 12C11.7795 11.9998 11.064 12.1419 10.3963 12.4182C9.72872 12.6946 9.1221 13.0998 8.61114 13.6106C8.10019 14.1215 7.69491 14.728 7.41846 15.3955C7.14201 16.063 6.99982 16.7784 7 17.5009C7 18.9593 7.57937 20.3579 8.61068 21.3892C9.64199 22.4205 11.0408 22.9999 12.4993 23C13.2217 23 13.937 22.8577 14.6043 22.5813C15.2717 22.3049 15.8781 21.8998 16.3889 21.3891C16.8997 20.8784 17.3048 20.2721 17.5813 19.6048C17.8577 18.9375 18 18.2223 18 17.5C18 16.7777 17.8577 16.0625 17.5813 15.3952C17.3048 14.728 16.8997 14.1216 16.3889 13.6109C15.8781 13.1002 15.2717 12.6951 14.6043 12.4187C13.937 12.1423 13.2217 12 12.4993 12H12.5021ZM12.5021 19.6995C12.0669 19.6994 11.6415 19.5703 11.2797 19.3285C10.918 19.0867 10.636 18.7431 10.4696 18.341C10.3031 17.939 10.2596 17.4966 10.3446 17.0699C10.4296 16.6431 10.6392 16.2512 10.947 15.9436C11.2548 15.636 11.6469 15.4265 12.0737 15.3417C12.5006 15.2569 12.943 15.3006 13.345 15.4672C13.747 15.6338 14.0906 15.9158 14.3323 16.2777C14.5739 16.6395 14.7029 17.0649 14.7028 17.5C14.7039 17.7893 14.6477 18.0759 14.5375 18.3434C14.4273 18.6108 14.2652 18.8539 14.0607 19.0584C13.8561 19.263 13.6131 19.425 13.3456 19.5352C13.0781 19.6454 12.7914 19.7006 12.5021 19.6995Z" fill="#0088FF"/>
<path d="M33 24C36.866 24 40 27.134 40 31C40 34.866 36.866 38 33 38C29.134 38 26 34.866 26 31C26 27.134 29.134 24 33 24ZM36.9297 27.8857C36.5904 27.6484 36.1232 27.731 35.8857 28.0703L32.8438 32.4141L30.9688 30.9141C30.6453 30.6553 30.1728 30.7078 29.9141 31.0312C29.6553 31.3547 29.7078 31.8272 30.0312 32.0859L32.1152 33.7529C32.6789 34.2036 33.506 34.0844 33.9199 33.4932L37.1143 28.9297C37.3516 28.5904 37.2689 28.1232 36.9297 27.8857Z" fill="#0088FF"/>
</svg>
