<svg width="64" height="64" viewBox="0 0 64 64" fill="none" xmlns="http://www.w3.org/2000/svg">
<path fill-rule="evenodd" clip-rule="evenodd" d="M27.9121 2C27.9326 2.00003 28.8992 2.00316 29.465 2.25355C30.0304 2.51334 30.9465 3.12591 32.2913 4.62393C32.2913 4.62393 35.3003 4.31787 36.8665 5.38991C38.4327 6.46883 39.1482 8.30697 39.2977 11.1374C39.4471 13.9679 39.499 15.54 39.447 16.6122C39.4015 17.6844 39.3496 18.011 39.3496 18.011C39.3674 18.0214 40.1859 18.5009 40.6165 19.4759C41.0519 20.4615 41.2793 22.4928 41.1494 23.9247C41.0129 25.3566 41.1302 26.7222 37.8877 28.5803C37.8877 28.5803 36.7366 31.4974 34.3581 33.7152C34.3568 33.7393 34.2742 35.4038 34.2871 35.946C34.3066 36.4921 34.092 37.0517 34.339 37.5312C34.5859 38.0041 35.0213 38.8567 36.5159 39.3029C36.9952 39.4439 38.1141 39.6373 39.5127 39.9219L36.8814 46.7273L35.7966 47.2727L34.7119 50L35.7966 52.7273V60.9091H0V53.0692H0.0974576C0.155942 52.2301 0.383572 48.9934 0.669492 48.0941C1.00092 47.0551 1.28688 45.9955 3.08051 44.3239C4.8805 42.6524 6.42727 41.8662 8.00636 41.2536C9.58549 40.6409 11.4315 40.3012 12.9131 40.0614C14.3884 39.8217 16.7539 39.3955 17.8845 38.6296C19.0149 37.8573 19.0674 37.571 19.035 36.6321C19.0025 35.693 18.9502 33.7014 18.9502 33.7014C18.9345 33.6887 16.1207 31.4099 15.0254 28.7933C15.0254 28.7933 12.8283 27.9072 12.4449 25.8626C12.0616 23.8182 12.0617 21.6873 12.1462 20.9545C12.2307 20.222 12.497 18.7234 13.8422 17.9375C13.8422 17.9375 13.7772 12.9088 13.8422 11.9897C13.9072 11.07 14.2391 7.09421 16.8708 4.97656C18.6644 3.47838 21.4588 3.55858 21.8422 3.63849C21.8502 3.63236 23.0613 2.71283 24.3178 2.79901L27.9121 2ZM25.4915 45.0909L22.2373 54.3636L27.1186 58.7273L32 54.3636L28.7458 45.0909L32 40.7273H22.2373L25.4915 45.0909Z" fill="url(#paint0_linear_102_454)"/>
<path d="M61.8519 48.41C61.6515 48.41 61.351 48.0985 61.2508 47.787C60.6498 46.2296 60.1489 44.6723 59.5479 43.1149C59.2474 42.0766 58.5461 41.4537 57.6446 41.246C56.3424 40.9346 55.0401 40.7269 53.838 40.4154C51.9347 40.104 50.332 40.104 48.2283 40.4154C47.5271 40.5192 46.8259 40.6231 46.0245 40.7269C44.1212 41.1422 42.6186 41.9728 42.0176 44.0493C41.717 45.2952 41.2162 46.5411 40.7153 47.787C40.6151 47.9947 40.3146 48.41 40.2145 48.41C38.9122 48.2023 38.3111 49.0329 38.0106 50.175C37.9104 50.3827 38.0106 50.6941 38.0106 50.7979C38.5115 50.9018 39.0124 51.1094 39.413 51.2133C39.413 53.1859 39.3129 55.1586 39.3129 57.1313C39.3129 58.1695 39.2127 59.3116 39.3129 60.3499C39.3129 60.869 39.5132 61.5958 39.8137 61.8034C40.0141 62.1149 43.42 62.0111 44.1212 61.8034C44.4217 61.6996 44.5219 60.1422 44.8224 59.2078H57.4442C57.7447 60.0384 57.1437 61.1805 58.1454 61.8034C58.4459 62.0111 62.1524 62.0111 62.2525 61.6996C62.4529 61.5958 62.6532 60.869 62.6532 60.4537V52.8744C62.6532 52.3553 62.5531 51.7324 62.4529 51.2133C62.9537 51.1094 63.4546 50.9018 63.9555 50.7979C63.9555 50.5903 64.0557 50.2788 63.9555 49.9673C63.655 49.0329 63.054 48.3061 61.8519 48.41ZM45.0228 55.1586C44.5219 55.2624 44.021 55.2624 43.6203 55.2624C42.9191 55.1586 42.2179 55.1586 41.6169 55.0548C40.7153 54.8471 40.5149 54.2242 40.8155 52.9783C41.0158 52.1477 41.6169 52.1477 42.1177 52.3553C43.2196 52.7706 44.3216 53.1859 45.3233 53.705C45.6238 53.8089 45.9243 54.328 45.8241 54.5357C45.724 54.8471 45.3233 55.0548 45.0228 55.1586ZM42.5184 48.8253C43.1195 46.9564 43.7205 45.2952 44.3215 43.634C44.4217 43.3225 44.9226 43.0111 45.3233 42.9072C46.1247 42.8034 47.0262 42.5958 47.9278 42.5958C50.6325 42.5958 53.3371 42.6996 56.0418 42.8034C57.1437 42.8034 57.8449 43.4264 58.2457 44.5684C58.6463 45.9182 59.047 47.2679 59.5479 48.8253C53.838 50.0712 48.2283 50.0712 42.5184 48.8253ZM60.6498 55.0548C59.9486 55.2624 59.2474 55.2624 58.6463 55.3663C57.9451 55.2624 57.4442 55.3663 56.8432 55.1586C56.142 55.0548 55.9416 54.2242 56.5427 53.9127C57.8449 53.2898 59.1472 52.7706 60.4494 52.3553C60.9503 52.1477 61.351 52.6668 61.351 53.2898C61.351 53.9127 61.5514 54.7433 60.6498 55.0548Z" fill="url(#paint1_linear_102_454)"/>
<defs>
<linearGradient id="paint0_linear_102_454" x1="0" y1="2" x2="59.8753" y2="65.8669" gradientUnits="userSpaceOnUse">
<stop offset="0.500516" stop-color="#F74D47"/>
<stop offset="1" stop-color="#FFA07D"/>
</linearGradient>
<linearGradient id="paint1_linear_102_454" x1="0" y1="2" x2="59.8753" y2="65.8669" gradientUnits="userSpaceOnUse">
<stop offset="0.500516" stop-color="#F74D47"/>
<stop offset="1" stop-color="#FFA07D"/>
</linearGradient>
</defs>
</svg>
