<svg width="64" height="61" viewBox="0 0 64 61" fill="none" xmlns="http://www.w3.org/2000/svg">
<path d="M59.3626 29.1732C59.8835 29.9937 60.16 30.9456 60.16 31.9175V49.4804C60.16 51.5173 59.3509 53.4707 57.9106 54.911C56.4703 56.3512 54.5169 57.1604 52.48 57.1604H11.52C9.48314 57.1604 7.5297 56.3512 6.08942 54.911C4.64914 53.4707 3.84 51.5173 3.84 49.4804V31.9367C3.84001 31.0189 4.08673 30.118 4.55432 29.3283C5.02191 28.5385 5.69319 27.889 6.4979 27.4476C7.30261 27.0063 8.21116 26.7894 9.12845 26.8196C10.0457 26.8497 10.9381 27.126 11.712 27.6193L31.9462 40.5204L52.2944 27.5962C52.862 27.2356 53.4951 26.9903 54.1576 26.8743C54.82 26.7584 55.4988 26.7741 56.1552 26.9205C56.8115 27.067 57.4326 27.3413 57.9829 27.7278C58.5333 28.1143 59.0021 28.6055 59.3626 29.1732ZM44.8 3.40039C46.8369 3.40039 48.7903 4.20953 50.2306 5.64981C51.6709 7.09009 52.48 9.04353 52.48 11.0804V23.8804L32.0422 36.6804L11.52 23.8804V11.0804C11.52 9.04353 12.3291 7.09009 13.7694 5.64981C15.2097 4.20953 17.1631 3.40039 19.2 3.40039H44.8Z" fill="url(#paint0_linear_102_435)"/>
<path d="M23.68 11.0801H40.32C41.6 11.0801 42.24 11.7201 42.24 13.0001C42.24 14.2801 41.6 14.9201 40.32 14.9201H23.68C22.4 14.9201 21.76 14.2801 21.76 13.0001C21.76 11.7201 22.4 11.0801 23.68 11.0801Z" fill="white"/>
<path d="M23.68 20.04H30.08C31.36 20.04 32 20.68 32 21.96C32 23.24 31.36 23.88 30.08 23.88H23.68C22.4 23.88 21.76 23.24 21.76 21.96C21.76 20.68 22.4 20.04 23.68 20.04Z" fill="white"/>
<defs>
<linearGradient id="paint0_linear_102_435" x1="3.84" y1="3.40039" x2="57.5419" y2="59.6595" gradientUnits="userSpaceOnUse">
<stop offset="0.500516" stop-color="#F74D47"/>
<stop offset="1" stop-color="#FFA07D"/>
</linearGradient>
</defs>
</svg>
