<svg width="36" height="36" viewBox="0 0 36 36" fill="none" xmlns="http://www.w3.org/2000/svg">
<g clip-path="url(#clip0_88_1270)">
<path d="M30.7273 5.27122C23.6982 -1.75783 12.3014 -1.7575 5.27164 5.2723C-1.75732 12.3013 -1.75762 23.698 5.27142 30.7271C12.2999 37.7555 23.6986 37.7571 30.7275 30.7281C37.7573 23.6983 37.7557 12.2997 30.7273 5.27122ZM28.0594 21.2259L15.9472 21.3561C15.9447 21.3561 15.9422 21.3563 15.9397 21.3563C15.9372 21.3564 15.9347 21.3562 15.9322 21.3562L15.8894 21.3566C15.5322 21.3595 15.2073 21.2149 14.9675 20.9781C14.9657 20.9764 14.964 20.9747 14.9623 20.973C14.9577 20.9684 14.953 20.9639 14.9485 20.9593C14.7088 20.7235 14.5596 20.4017 14.5567 20.0456L14.4855 11.3015C14.4797 10.5714 15.0891 9.97461 15.8469 9.96841C16.6049 9.96238 17.2242 10.5492 17.2298 11.2791L17.2894 18.6007L28.037 18.4814C28.7672 18.4757 29.3639 19.0852 29.37 19.8429C29.3763 20.6007 28.7896 21.2199 28.0594 21.2259Z" fill="#FF8D28"/>
</g>
<defs>
<clipPath id="clip0_88_1270">
<rect width="36" height="36" fill="white"/>
</clipPath>
</defs>
</svg>
