<svg width="48" height="48" viewBox="0 0 48 48" fill="none" xmlns="http://www.w3.org/2000/svg">
<rect width="48" height="48" rx="12" fill="#FFF4F2"/>
<path d="M12.5001 35V16.2604C12.5001 15.4902 12.9423 14.7885 13.6371 14.4562L21.1371 10.8692C22.4646 10.2343 24.0001 11.2008 24.0001 12.6723C24.0001 13.7477 24.0001 15.0488 24.0001 16.5M24.0001 35C24.0001 29.3443 24.0001 21.8877 24.0001 16.5M24.0001 16.5L33.6835 20.0213C34.4739 20.3087 35.0001 21.0569 35.0001 21.8979C35.0001 24.6147 35.0001 30.7159 35.0001 35M37.0001 35.5H10.5001M17.0001 22H19.5001M17.0001 28H19.5001M28.5001 27.5H30.5002" stroke="#FE4B4F" stroke-width="2" stroke-linecap="round"/>
</svg>
