<svg width="36" height="36" viewBox="0 0 36 36" fill="none" xmlns="http://www.w3.org/2000/svg">
<g clip-path="url(#clip0_89_1545)">
<path d="M18 0C27.9411 2.47395e-05 36 8.05889 36 18C36 27.9411 27.9411 36 18 36C8.0589 36 0 27.9411 0 18C2.06162e-06 8.05887 8.0589 0 18 0ZM26.917 12.7285C26.3889 12.2004 25.533 12.2004 25.0049 12.7285L15.8818 21.8506L11.8555 17.8242C11.3297 17.2985 10.4769 17.2985 9.95117 17.8242C9.42582 18.3498 9.426 19.2018 9.95117 19.7275L14.4727 24.252C15.2535 25.0332 16.5195 25.0338 17.3008 24.2529L26.917 14.6406C27.4451 14.1126 27.445 13.2566 26.917 12.7285Z" fill="#34C759"/>
</g>
<defs>
<clipPath id="clip0_89_1545">
<rect width="36" height="36" fill="white"/>
</clipPath>
</defs>
</svg>
